<mxfile host="app.diagrams.net" modified="2020-06-19T10:03:54.210Z" agent="5.0 (Windows NT 10.0; Win64; x64) AppleWebKit/537.36 (KHTML, like Gecko) Chrome/85.0.4173.0 Safari/537.36" etag="y71Ok7dy-uZzVP3uGxFF" version="13.2.6" type="github">
  <diagram id="K24yG_uio-jVfGYNilbi" name="Page-1">
    <mxGraphModel dx="1422" dy="713" grid="1" gridSize="10" guides="1" tooltips="1" connect="1" arrows="1" fold="1" page="1" pageScale="1" pageWidth="827" pageHeight="1169" math="0" shadow="0">
      <root>
        <mxCell id="0" />
        <mxCell id="1" parent="0" />
        <mxCell id="4CMs9tDYtMEGwvXOvuF7-8" value="Classname" style="swimlane;fontStyle=1;align=center;verticalAlign=top;childLayout=stackLayout;horizontal=1;startSize=26;horizontalStack=0;resizeParent=1;resizeParentMax=0;resizeLast=0;collapsible=1;marginBottom=0;" vertex="1" parent="1">
          <mxGeometry x="490" y="70" width="160" height="86" as="geometry" />
        </mxCell>
        <mxCell id="4CMs9tDYtMEGwvXOvuF7-9" value="+ field: type" style="text;strokeColor=none;fillColor=none;align=left;verticalAlign=top;spacingLeft=4;spacingRight=4;overflow=hidden;rotatable=0;points=[[0,0.5],[1,0.5]];portConstraint=eastwest;" vertex="1" parent="4CMs9tDYtMEGwvXOvuF7-8">
          <mxGeometry y="26" width="160" height="26" as="geometry" />
        </mxCell>
        <mxCell id="4CMs9tDYtMEGwvXOvuF7-10" value="" style="line;strokeWidth=1;fillColor=none;align=left;verticalAlign=middle;spacingTop=-1;spacingLeft=3;spacingRight=3;rotatable=0;labelPosition=right;points=[];portConstraint=eastwest;" vertex="1" parent="4CMs9tDYtMEGwvXOvuF7-8">
          <mxGeometry y="52" width="160" height="8" as="geometry" />
        </mxCell>
        <mxCell id="4CMs9tDYtMEGwvXOvuF7-11" value="+ method(type): type" style="text;strokeColor=none;fillColor=none;align=left;verticalAlign=top;spacingLeft=4;spacingRight=4;overflow=hidden;rotatable=0;points=[[0,0.5],[1,0.5]];portConstraint=eastwest;" vertex="1" parent="4CMs9tDYtMEGwvXOvuF7-8">
          <mxGeometry y="60" width="160" height="26" as="geometry" />
        </mxCell>
        <mxCell id="4CMs9tDYtMEGwvXOvuF7-33" value="structÂ devdrv_pci_ctrl" style="swimlane;fontStyle=1;childLayout=stackLayout;horizontal=1;startSize=26;fillColor=none;horizontalStack=0;resizeParent=1;resizeParentMax=0;resizeLast=0;collapsible=1;marginBottom=0;" vertex="1" parent="1">
          <mxGeometry x="250" y="370" width="140" height="258" as="geometry" />
        </mxCell>
        <mxCell id="4CMs9tDYtMEGwvXOvuF7-34" value="pdev" style="text;strokeColor=none;fillColor=none;align=left;verticalAlign=top;spacingLeft=4;spacingRight=4;overflow=hidden;rotatable=0;points=[[0,0.5],[1,0.5]];portConstraint=eastwest;" vertex="1" parent="4CMs9tDYtMEGwvXOvuF7-33">
          <mxGeometry y="26" width="140" height="24" as="geometry" />
        </mxCell>
        <mxCell id="4CMs9tDYtMEGwvXOvuF7-35" value="dev_id&#xa;" style="text;strokeColor=none;fillColor=none;align=left;verticalAlign=top;spacingLeft=4;spacingRight=4;overflow=hidden;rotatable=0;points=[[0,0.5],[1,0.5]];portConstraint=eastwest;" vertex="1" parent="4CMs9tDYtMEGwvXOvuF7-33">
          <mxGeometry y="50" width="140" height="26" as="geometry" />
        </mxCell>
        <mxCell id="4CMs9tDYtMEGwvXOvuF7-36" value="io_base" style="text;strokeColor=none;fillColor=none;align=left;verticalAlign=top;spacingLeft=4;spacingRight=4;overflow=hidden;rotatable=0;points=[[0,0.5],[1,0.5]];portConstraint=eastwest;" vertex="1" parent="4CMs9tDYtMEGwvXOvuF7-33">
          <mxGeometry y="76" width="140" height="26" as="geometry" />
        </mxCell>
        <mxCell id="4CMs9tDYtMEGwvXOvuF7-37" value="msi_base" style="text;strokeColor=none;fillColor=none;align=left;verticalAlign=top;spacingLeft=4;spacingRight=4;overflow=hidden;rotatable=0;points=[[0,0.5],[1,0.5]];portConstraint=eastwest;" vertex="1" parent="4CMs9tDYtMEGwvXOvuF7-33">
          <mxGeometry y="102" width="140" height="26" as="geometry" />
        </mxCell>
        <mxCell id="4CMs9tDYtMEGwvXOvuF7-38" value="mem_base" style="text;strokeColor=none;fillColor=none;align=left;verticalAlign=top;spacingLeft=4;spacingRight=4;overflow=hidden;rotatable=0;points=[[0,0.5],[1,0.5]];portConstraint=eastwest;" vertex="1" parent="4CMs9tDYtMEGwvXOvuF7-33">
          <mxGeometry y="128" width="140" height="26" as="geometry" />
        </mxCell>
        <mxCell id="4CMs9tDYtMEGwvXOvuF7-39" value="rc_reg_base" style="text;strokeColor=none;fillColor=none;align=left;verticalAlign=top;spacingLeft=4;spacingRight=4;overflow=hidden;rotatable=0;points=[[0,0.5],[1,0.5]];portConstraint=eastwest;" vertex="1" parent="4CMs9tDYtMEGwvXOvuF7-33">
          <mxGeometry y="154" width="140" height="26" as="geometry" />
        </mxCell>
        <mxCell id="4CMs9tDYtMEGwvXOvuF7-40" value="..." style="text;strokeColor=none;fillColor=none;align=left;verticalAlign=top;spacingLeft=4;spacingRight=4;overflow=hidden;rotatable=0;points=[[0,0.5],[1,0.5]];portConstraint=eastwest;" vertex="1" parent="4CMs9tDYtMEGwvXOvuF7-33">
          <mxGeometry y="180" width="140" height="26" as="geometry" />
        </mxCell>
        <mxCell id="4CMs9tDYtMEGwvXOvuF7-41" value="load_work" style="text;strokeColor=none;fillColor=none;align=left;verticalAlign=top;spacingLeft=4;spacingRight=4;overflow=hidden;rotatable=0;points=[[0,0.5],[1,0.5]];portConstraint=eastwest;" vertex="1" parent="4CMs9tDYtMEGwvXOvuF7-33">
          <mxGeometry y="206" width="140" height="26" as="geometry" />
        </mxCell>
        <mxCell id="4CMs9tDYtMEGwvXOvuF7-42" value="agent_loader" style="text;strokeColor=none;fillColor=none;align=left;verticalAlign=top;spacingLeft=4;spacingRight=4;overflow=hidden;rotatable=0;points=[[0,0.5],[1,0.5]];portConstraint=eastwest;" vertex="1" parent="4CMs9tDYtMEGwvXOvuF7-33">
          <mxGeometry y="232" width="140" height="26" as="geometry" />
        </mxCell>
        <mxCell id="4CMs9tDYtMEGwvXOvuF7-1" value="struct devdrv_ctrl" style="swimlane;fontStyle=1;childLayout=stackLayout;horizontal=1;startSize=26;fillColor=none;horizontalStack=0;resizeParent=1;resizeParentMax=0;resizeLast=0;collapsible=1;marginBottom=0;" vertex="1" parent="1">
          <mxGeometry x="250" y="156" width="140" height="156" as="geometry">
            <mxRectangle x="250" y="70" width="120" height="26" as="alternateBounds" />
          </mxGeometry>
        </mxCell>
        <mxCell id="4CMs9tDYtMEGwvXOvuF7-2" value="dev_id" style="text;strokeColor=none;fillColor=none;align=left;verticalAlign=top;spacingLeft=4;spacingRight=4;overflow=hidden;rotatable=0;points=[[0,0.5],[1,0.5]];portConstraint=eastwest;" vertex="1" parent="4CMs9tDYtMEGwvXOvuF7-1">
          <mxGeometry y="26" width="140" height="26" as="geometry" />
        </mxCell>
        <mxCell id="4CMs9tDYtMEGwvXOvuF7-3" value="priv" style="text;strokeColor=none;fillColor=none;align=left;verticalAlign=top;spacingLeft=4;spacingRight=4;overflow=hidden;rotatable=0;points=[[0,0.5],[1,0.5]];portConstraint=eastwest;" vertex="1" parent="4CMs9tDYtMEGwvXOvuF7-1">
          <mxGeometry y="52" width="140" height="26" as="geometry" />
        </mxCell>
        <mxCell id="4CMs9tDYtMEGwvXOvuF7-4" value="dev_type" style="text;strokeColor=none;fillColor=none;align=left;verticalAlign=top;spacingLeft=4;spacingRight=4;overflow=hidden;rotatable=0;points=[[0,0.5],[1,0.5]];portConstraint=eastwest;" vertex="1" parent="4CMs9tDYtMEGwvXOvuF7-1">
          <mxGeometry y="78" width="140" height="26" as="geometry" />
        </mxCell>
        <mxCell id="4CMs9tDYtMEGwvXOvuF7-6" value="dev_type" style="text;strokeColor=none;fillColor=none;align=left;verticalAlign=top;spacingLeft=4;spacingRight=4;overflow=hidden;rotatable=0;points=[[0,0.5],[1,0.5]];portConstraint=eastwest;" vertex="1" parent="4CMs9tDYtMEGwvXOvuF7-1">
          <mxGeometry y="104" width="140" height="26" as="geometry" />
        </mxCell>
        <mxCell id="4CMs9tDYtMEGwvXOvuF7-7" value="dev_type" style="text;strokeColor=none;fillColor=none;align=left;verticalAlign=top;spacingLeft=4;spacingRight=4;overflow=hidden;rotatable=0;points=[[0,0.5],[1,0.5]];portConstraint=eastwest;" vertex="1" parent="4CMs9tDYtMEGwvXOvuF7-1">
          <mxGeometry y="130" width="140" height="26" as="geometry" />
        </mxCell>
        <mxCell id="4CMs9tDYtMEGwvXOvuF7-43" value="struct pci_dev" style="swimlane;fontStyle=1;childLayout=stackLayout;horizontal=1;startSize=26;fillColor=none;horizontalStack=0;resizeParent=1;resizeParentMax=0;resizeLast=0;collapsible=1;marginBottom=0;" vertex="1" parent="1">
          <mxGeometry x="580" y="388" width="140" height="78" as="geometry" />
        </mxCell>
        <mxCell id="4CMs9tDYtMEGwvXOvuF7-44" value="dev" style="text;strokeColor=none;fillColor=none;align=left;verticalAlign=top;spacingLeft=4;spacingRight=4;overflow=hidden;rotatable=0;points=[[0,0.5],[1,0.5]];portConstraint=eastwest;" vertex="1" parent="4CMs9tDYtMEGwvXOvuF7-43">
          <mxGeometry y="26" width="140" height="26" as="geometry" />
        </mxCell>
        <mxCell id="4CMs9tDYtMEGwvXOvuF7-45" value="bus" style="text;strokeColor=none;fillColor=none;align=left;verticalAlign=top;spacingLeft=4;spacingRight=4;overflow=hidden;rotatable=0;points=[[0,0.5],[1,0.5]];portConstraint=eastwest;" vertex="1" parent="4CMs9tDYtMEGwvXOvuF7-43">
          <mxGeometry y="52" width="140" height="26" as="geometry" />
        </mxCell>
      </root>
    </mxGraphModel>
  </diagram>
</mxfile>
